<svg xmlns="http://www.w3.org/2000/svg" width="1200" height="1200" viewBox="0 0 1200 1200" version="1.1"><path d="M 561.500 0.682 C 373.587 12.783, 202.258 112.236, 98.522 269.434 C 45.242 350.172, 13.297 439.989, 2.469 539.500 C 0.245 559.938, -0.617 615.629, 0.933 638.729 C 13.467 825.548, 110.702 993.705, 266.646 1098.249 C 340.486 1147.750, 424.706 1180.040, 513.500 1192.893 C 544.075 1197.318, 560.981 1198.425, 598.500 1198.459 C 642.142 1198.499, 670.163 1196.163, 706.934 1189.420 C 868.797 1159.738, 1010.757 1065.439, 1101.235 927.500 C 1155.070 845.425, 1186.487 755.382, 1196.662 654 C 1199.145 629.264, 1199.157 569.590, 1196.684 545 C 1187.051 449.199, 1158.668 363.770, 1110.418 285.356 C 1065.915 213.029, 1003.506 148.109, 933.500 101.317 C 845.341 42.391, 746.646 8.603, 640.500 1.010 C 627.868 0.106, 573.922 -0.117, 561.500 0.682 M 206 413.987 L 206 460 529.750 460.020 C 735.522 460.032, 855.967 460.396, 860.269 461.018 C 874.029 463.008, 888.115 472.446, 894.309 483.826 C 906.533 506.285, 897.935 534.760, 875.316 546.729 C 864.468 552.468, 866.264 552.322, 799.041 552.933 L 736.583 553.500 710.291 598.810 C 695.831 623.730, 684 644.337, 684 644.603 C 684 644.868, 726.413 644.932, 778.250 644.744 L 872.500 644.403 883 641.791 C 912.486 634.456, 933.604 622.505, 953.550 601.865 C 993.445 560.580, 1003.649 499.561, 979.424 447.129 C 966.917 420.059, 940.464 393.815, 912.939 381.168 C 903.080 376.638, 894.969 373.872, 882.500 370.786 L 873.500 368.559 539.750 368.266 L 206 367.974 206 413.987 M 271.262 642.250 C 271.610 730.697, 271.634 731.590, 273.875 741.484 C 284.617 788.906, 315.933 818.988, 365 829.018 C 394.076 834.962, 424.720 831.568, 446.959 819.941 C 467.004 809.461, 486.380 789.373, 504.777 760 C 510.239 751.280, 624 554.075, 624 553.328 C 624 553.147, 601.124 553, 573.164 553 L 522.328 553 479.536 628.750 C 456.001 670.413, 433.866 708.920, 430.348 714.322 C 418.114 733.106, 409.214 739.316, 394.585 739.276 C 381.786 739.240, 373.552 735.211, 368.435 726.480 C 362.980 717.171, 363.025 717.949, 363.012 632.250 L 363 553 316.955 553 L 270.910 553 271.262 642.250 M 631.180 743.750 C 620.892 761.517, 583.955 826.954, 583.406 828.384 C 582.834 829.876, 597.253 829.985, 764.142 829.753 L 945.500 829.500 945.760 783.250 L 946.020 737 790.554 737 L 635.088 737 631.180 743.750" stroke="none" fill="#ff1c00" fill-rule="evenodd"/><path d="M 206 413.987 L 206 460 529.750 460.020 C 735.522 460.032, 855.967 460.396, 860.269 461.018 C 874.029 463.008, 888.115 472.446, 894.309 483.826 C 906.533 506.285, 897.935 534.760, 875.316 546.729 C 864.468 552.468, 866.264 552.322, 799.041 552.933 L 736.583 553.500 710.291 598.810 C 695.831 623.730, 684 644.337, 684 644.603 C 684 644.868, 726.413 644.932, 778.250 644.744 L 872.500 644.403 883 641.791 C 912.486 634.456, 933.604 622.505, 953.550 601.865 C 993.445 560.580, 1003.649 499.561, 979.424 447.129 C 966.917 420.059, 940.464 393.815, 912.939 381.168 C 903.080 376.638, 894.969 373.872, 882.500 370.786 L 873.500 368.559 539.750 368.266 L 206 367.974 206 413.987 M 271.262 642.250 C 271.610 730.697, 271.634 731.590, 273.875 741.484 C 284.617 788.906, 315.933 818.988, 365 829.018 C 394.076 834.962, 424.720 831.568, 446.959 819.941 C 467.004 809.461, 486.380 789.373, 504.777 760 C 510.239 751.280, 624 554.075, 624 553.328 C 624 553.147, 601.124 553, 573.164 553 L 522.328 553 479.536 628.750 C 456.001 670.413, 433.866 708.920, 430.348 714.322 C 418.114 733.106, 409.214 739.316, 394.585 739.276 C 381.786 739.240, 373.552 735.211, 368.435 726.480 C 362.980 717.171, 363.025 717.949, 363.012 632.250 L 363 553 316.955 553 L 270.910 553 271.262 642.250 M 631.180 743.750 C 620.892 761.517, 583.955 826.954, 583.406 828.384 C 582.834 829.876, 597.253 829.985, 764.142 829.753 L 945.500 829.500 945.760 783.250 L 946.020 737 790.554 737 L 635.088 737 631.180 743.750" stroke="none" fill="#fdebeb" fill-rule="evenodd"/></svg>